<?xml version="1.0" encoding="utf-8"?>
<!-- Generator: Adobe Illustrator 27.7.0, SVG Export Plug-In . SVG Version: 6.00 Build 0)  -->
<svg version="1.1" id="Ebene_1" focusable="false" xmlns="http://www.w3.org/2000/svg" xmlns:xlink="http://www.w3.org/1999/xlink"
	 x="0px" y="0px" viewBox="0 0 67 53" style="enable-background:new 0 0 67 53;" xml:space="preserve">
<g>
	<path fill="currentColor" d="M17.8,43.7c-5.8-1.3-9-2.2-9.6-3.6C7.3,38,7.9,33.2,8.8,26l0.1-1.5c0,0,0,0,0,0l2.2,0.5c0.7,0.2,1.4-0.4,1.2-1.2l-2.2-10.7
		c-0.2-0.8-1.2-1.1-1.7-0.5l-7.2,8.2c-0.5,0.6-0.2,1.4,0.5,1.6L4,23.2c-0.1,0.3,0-0.3,0,0l-0.3,2.1C1.5,42.8,1.2,46.6,16.3,50h0
		c1.7,0.4,3.5-0.7,3.9-2.4l0,0C20.6,45.8,19.5,44.1,17.8,43.7z"/>
	<path fill="currentColor" d="M65.4,31.4l-2.2-0.7c3.2-15,4.5-23.5-11.5-27.9c-1.7-0.5-3.5,0.5-4,2.3s0.5,3.5,2.3,4c9.7,2.7,11.3,5.1,8.2,20.3l-2.2-0.5
		c-0.7-0.2-1.4,0.4-1.2,1.2l2.2,10.7c0.2,0.8,1.2,1.1,1.7,0.5l7.2-8.2C66.4,32.5,66.1,31.6,65.4,31.4z"/>
	<path fill="currentColor" d="M56.9,23.2c-0.4-1.6-1.6-2.8-3.2-3c-1.2-0.2-3.2-1-6-3.6c-2.2-2.1-2.6-5.3-2.8-7.6c-0.1-1.9-1.5-3.5-3.4-3.9l-0.1,0
		c-1.3-0.2-2.7,0.2-3.6,1.1c-1,1-3.7,3.4-6.7,3.8c-2.7,0.4-5.8-0.8-7.5-1.6c-1.7-0.8-3.7-0.4-5,0.9l0,0c-1,1-1.3,2.5-0.8,4.1
		c0.3,1,1.2,4.6-0.4,7.9c-1.1,2.3-3.2,4.1-4.7,5.2c-1.7,1.2-2.3,2.9-1.8,4.8c0.5,1.9,2.1,2.8,3.5,3c0.7,0.1,2.1,0.3,5.1,2.9
		c2.9,2.5,3.2,6.4,3.2,7.6c0.1,1.8,0.9,3.3,2.3,4c0.5,0.3,1.1,0.4,1.7,0.4c1.2,0,2.5-0.6,3.3-1.4c0.9-1,1.7-1.6,2.4-2.1
		c0.9-0.6,1.8-1,2.3-1.1c1-0.2,1.5-0.7,1.8-1.2c0.5,0.4,1.2,0.7,1.9,0.6c0.2,0,0.9,0,2.6,0.3c0.9,0.2,1.7,0.5,2.4,0.9
		c0.2,0.1,0.4,0.2,0.5,0.2c2.5,1.1,4.2,0.1,5-0.5c1.1-0.9,1.5-2.4,1.1-3.8c-0.4-1.3-1.2-4.7,0.2-8.1c1-2.6,3-4.2,4.7-5.4
		C56.5,26.6,57.3,25,56.9,23.2z M52.8,24.9c-2.1,1.4-4.6,3.5-6,7c-1.7,4.3-0.9,8.4-0.3,10.4c0,0.1,0,0.1,0,0.2
		c-0.1,0.1-0.4,0.4-1.2,0c-0.2-0.1-0.3-0.1-0.5-0.2c-0.8-0.4-1.8-0.9-3.1-1.1c-1.2-0.3-2.2-0.4-3-0.4c-0.7-0.9-1.7-1.3-2.8-1.1
		c-1.1,0.2-1.9,0.9-2.3,1.9c-0.9,0.3-2,0.8-3,1.5c-1.2,0.8-2.2,1.8-2.9,2.5c-0.2,0.2-0.7,0.4-0.8,0.3c-0.4-0.2-0.4-0.8-0.5-1.1
		c0-1.5-0.5-6.7-4.5-10.1c-3.3-2.9-5.3-3.5-6.9-3.7c0,0-0.6-0.1-0.7-0.5c-0.1-0.3-0.2-0.6,0.5-1c1.9-1.3,4.4-3.5,5.8-6.5
		c2.1-4.4,1.1-8.7,0.6-10.4c-0.1-0.3-0.1-0.6,0.1-0.7c0.3-0.3,0.5-0.2,0.9-0.1c2.5,1.2,6.1,2.4,9.5,1.9c3.8-0.6,7-3.2,8.6-4.8
		c0.1-0.1,0.3-0.2,0.5-0.2l0.1,0c0.3,0.1,0.5,0.3,0.5,0.6c0.1,2.8,0.7,6.9,3.8,9.9c3.4,3.2,6.1,4.2,7.8,4.5c0.2,0,0.3,0.2,0.4,0.4
		C53.6,24.4,53.1,24.8,52.8,24.9z"/>
</g>
</svg>
