<?xml version="1.0" encoding="utf-8"?>
<!-- Generator: Adobe Illustrator 27.7.0, SVG Export Plug-In . SVG Version: 6.00 Build 0)  -->
<svg version="1.1" id="Ebene_1" focusable="false" xmlns="http://www.w3.org/2000/svg" xmlns:xlink="http://www.w3.org/1999/xlink"
	 x="0px" y="0px" viewBox="0 0 57 63" style="enable-background:new 0 0 57 63;" xml:space="preserve">
<path fill="currentColor" d="M54.4,45.7C54.4,45.7,54.4,45.6,54.4,45.7C54.4,45.6,54.4,45.6,54.4,45.7l0-0.1l-2-22.1c-0.1-1-1-1.8-2-1.8h-4.8
	c0,0,0,0,0,0l0,0c0-0.2,0-0.5,0-0.7c0-6.4-6.8-10.6-17.2-10.6S11.2,14.5,11.2,21c0,0.2,0,0.5,0,0.7H6.5c-1,0-1.9,0.8-2,1.8l-2,22.1
	l0,9.8c0,1.1,0.9,2,2,2h48c0.5,0,1-0.2,1.4-0.6c0.4-0.4,0.6-0.9,0.6-1.4L54.4,45.7z M28.4,14.4c8,0,13.2,2.6,13.2,6.6
	c0,4-5.2,6.6-13.2,6.6S15.2,24.9,15.2,21C15.2,17,20.4,14.4,28.4,14.4z M41.7,31.8c0,4-5.2,6.6-13.2,6.6s-13.2-2.6-13.2-6.6v-3.6
	c3.1,2.2,7.7,3.4,13.2,3.4s10.2-1.2,13.2-3.4V31.8z M28.4,42.3c10.5,0,17.2-4.1,17.2-10.6v-6.1h2.9l1.6,18H6.7l1.6-18h2.8v6.1
	C11.2,38.2,17.9,42.3,28.4,42.3z M50.5,53.4H6.5v-5.7h43.9L50.5,53.4z"/>
</svg>
