<?xml version="1.0" encoding="utf-8"?>
<!-- Generator: Adobe Illustrator 27.7.0, SVG Export Plug-In . SVG Version: 6.00 Build 0)  -->
<svg version="1.1" id="Ebene_1" focusable="false" xmlns="http://www.w3.org/2000/svg" xmlns:xlink="http://www.w3.org/1999/xlink"
	 x="0px" y="0px" viewBox="0 0 57 63" style="enable-background:new 0 0 57 63;" xml:space="preserve">
<path fill="currentColor" d="M54.9,45.7L54.9,45.7L54.9,45.7l-2-24.2c-0.1-1.2-1.2-2.3-2.5-2.3h-4.3V19c0-6.7-6.9-11.1-17.7-11.1
	c-10.8,0-17.7,4.4-17.7,11.1v0.2H6.5c-1.3,0-2.4,1-2.5,2.3L2,45.6v9.8c0,1.4,1.1,2.5,2.5,2.5h48c0.7,0,1.3-0.3,1.8-0.7
	c0.5-0.5,0.7-1.1,0.7-1.8L54.9,45.7z M50,52.9H7v-4.7h42.9L50,52.9z M28.4,41.8c10.8,0,17.7-4.4,17.7-11.1v-6.6H48l1.5,19H7.2
	l1.5-19h1.8v6.6C10.7,37.5,17.5,41.8,28.4,41.8z M28.4,25.1c-7.6,0-12.7-2.5-12.7-6.1c0-3.7,5-6.1,12.7-6.1c7.7,0,12.7,2.4,12.7,6.1
	S36.1,25.1,28.4,25.1z M41.2,30.8c0,3.7-5,6.1-12.7,6.1s-12.7-2.4-12.7-6.1v-3.7c3.2,1.9,7.5,3,12.7,3c5.2,0,9.6-1,12.7-3V30.8z"/>
</svg>
