<?xml version="1.0" encoding="utf-8"?>
<!-- Generator: Adobe Illustrator 27.7.0, SVG Export Plug-In . SVG Version: 6.00 Build 0)  -->
<svg version="1.1" id="Ebene_1" focusable="false" xmlns="http://www.w3.org/2000/svg" xmlns:xlink="http://www.w3.org/1999/xlink"
	 x="0px" y="0px" viewBox="0 0 67 53" style="enable-background:new 0 0 67 53;" xml:space="preserve">
<path fill="currentColor" d="M62.8,26.2c-0.2-2.1-1.4-3.8-3.4-4.3c-1.5-0.5-3.8-1.9-6.8-5.6c-2.3-3-2.2-7.1-2-10c0.2-2.4-1.2-4.6-3.5-5.5l-0.1,0
	c-1.6-0.5-3.4-0.3-4.7,0.7c-1.4,1-5.2,3.5-9,3.4c-3.4,0-7-2.1-9-3.4S19.8,0.2,18,1.6l0,0c-1.4,1-2.1,2.9-1.8,4.9
	c0.2,1.3,0.6,5.9-2,9.7c-1.8,2.6-4.8,4.5-6.8,5.6C5,23,3.9,24.9,4.2,27.4c0.3,2.5,2.1,3.9,3.8,4.4c0.8,0.3,2.5,0.8,5.8,4.6
	c3.1,3.7,2.7,8.6,2.5,10c-0.2,2.3,0.5,4.3,2.1,5.4c0.6,0.5,1.3,0.7,2,0.8c1.5,0.2,3.2-0.3,4.4-1.1c1.3-1.1,2.4-1.7,3.4-2.1
	c1.2-0.6,2.4-0.9,3.1-0.9c1.3-0.1,2-0.6,2.5-1.1c0.5,0.6,1.4,1.1,2.2,1.1c0.2,0,1.1,0.2,3.2,0.9c1.1,0.4,2,0.9,2.8,1.6
	c0.2,0.2,0.5,0.3,0.6,0.3c2.9,1.8,5.2,0.9,6.3,0.3c1.5-0.9,2.3-2.7,2.1-4.5c-0.2-1.7-0.6-6.1,1.8-10c1.7-3,4.5-4.6,6.9-5.8
	C61.7,30.3,63,28.5,62.8,26.2z M57.4,27.5C54.5,28.8,51,31,48.6,35c-2.9,5-2.7,10.3-2.4,12.9c0,0.1,0,0.1,0,0.2
	c-0.1,0.1-0.6,0.4-1.5-0.2c-0.2-0.2-0.4-0.2-0.6-0.3c-0.9-0.7-2.1-1.5-3.6-2c-1.4-0.6-2.7-0.9-3.6-1.1c-0.7-1.3-1.9-1.9-3.3-1.9
	c-1.4,0-2.5,0.8-3.2,1.9c-1.2,0.2-2.6,0.6-4,1.3c-1.6,0.8-3.1,1.8-4.1,2.5c-0.3,0.2-0.9,0.4-1.1,0.2c-0.5-0.3-0.3-1.1-0.4-1.5
	c0.3-1.9,0.7-8.4-3.6-13.4c-3.5-4.2-5.9-5.4-7.9-5.9c0,0-0.7-0.2-0.8-0.8c-0.1-0.4-0.1-0.8,0.8-1.1c2.6-1.2,6.1-3.5,8.4-7
	c3.5-5.1,3-10.6,2.7-12.8c-0.1-0.4,0-0.8,0.3-0.8c0.4-0.3,0.7-0.2,1.1,0c2.9,2,7.1,4.2,11.4,4.2c4.8,0,9.3-2.6,11.6-4.3
	c0.1-0.1,0.4-0.2,0.7-0.2l0.1,0c0.4,0.2,0.6,0.5,0.5,0.8c-0.4,3.5-0.5,8.7,2.8,13c3.6,4.6,6.8,6.4,8.8,7.1c0.2,0,0.3,0.3,0.4,0.6
	C58.5,27,57.8,27.4,57.4,27.5z"/>
</svg>
