<?xml version="1.0" encoding="utf-8"?>
<!-- Generator: Adobe Illustrator 27.7.0, SVG Export Plug-In . SVG Version: 6.00 Build 0)  -->
<svg version="1.1" id="Ebene_1" focusable="false" xmlns="http://www.w3.org/2000/svg" xmlns:xlink="http://www.w3.org/1999/xlink"
	 x="0px" y="0px" viewBox="0 0 49 59" style="enable-background:new 0 0 49 59;" xml:space="preserve">
<path fill="currentColor" d="M45.4,8.6H3.8C1.7,8.6,0,10.3,0,13.4v33.8C0,48.3,1.7,50,3.8,50h41.6c1,0,1.9-0.4,2.7-1.1c0.7-0.7,1.1-1.7,1.1-2.7V12.4
	C49.1,10.3,47.4,8.6,45.4,8.6z M45.3,15.9v15.5c-0.2,0-0.1,0-0.2,0.1H45c-0.6,0.2-1.7,0.5-2.8,0c-0.2-0.1-0.7-0.7-1.4-1.7
	c-1-1.4-2-2.9-3.6-2.9s-2.6,1.6-3.4,2.9l-0.2,0.4c-0.2,0.3-0.6,0.8-0.8,1.1c-0.2-0.4-0.6-1.5-1-3.3v-0.2c-0.6-2.6-1.3-5.5-3.7-5.4
	c-2.7,0.1-3.1,3.4-3.6,7c-0.4,3.2-0.7,4.1-0.9,4.3c-0.5-0.2-0.8-2.5-0.9-6.7v1.8c-0.1-3.7-0.2-8.8-1.7-10.3
	c-0.5-0.5-1.2-0.8-1.9-0.7c-0.9,0-1.7,0.4-2.3,1c-1.8,2-1.6,6.7-1.3,11.7c0.2,3.4,0.5,8.4-0.6,9.6c-0.1,0.1-0.2,0.2-0.3,0.2
	c-0.2-0.1-0.6-1-0.9-5.3c-0.3-3.9-0.6-7.7-3.3-8.3c-1.8-0.4-3,1.3-4,2.9l-0.1,0.1c-0.3,0.4-1,1.5-1.2,1.6c-0.7,0.3-1.2,0-1.2,0
	c-0.1,0,0.1,0,0-0.1V15.7h41.4V15.9z M43.3,45.6L6,45.7c-1.1,0-2.1-0.9-2.1-2.1v-7.4C4.8,36.4,5.2,36.3,6,36c1-0.4,1.7-1.5,2.5-2.6
	l0.1-0.1c0.6-0.9,1-1.5,1.2-1.7c0.7,0.6,1,4.5,1.1,5.8c0.3,3.8,0.6,7.8,3.6,7.8h0.2c4.2-0.3,3.9-6.3,3.5-12.8
	c-0.2-3.8-0.5-8.5,0.6-9.7c0.1-0.1,0.2-0.2,0.4-0.2c0.7,0.6,0.8,4,0.8,6.3v0.3c0.1,4.7,0.3,9.1,3.6,9.3c2.8,0.2,3.3-3.5,3.7-6.8
	v-0.2c0.3-2.5,0.7-3.9,0.9-4.3c0.3,0.5,0.7,2.2,0.9,2.9l0.1,0.4c0.6,2.6,1.2,5.3,3.3,5.7c1.6,0.3,2.7-1.3,3.6-2.8l0.1-0.2
	c0.2-0.3,0.8-1.2,1.1-1.5c0.3,0.3,1,1.2,1.3,1.6l0.2,0.3c0.8,1.1,1.5,2.1,2.5,2.5c1.8,0.8,3.2,0.5,4.1,0.2v7.3
	C45.4,44.7,44.5,45.6,43.3,45.6L43.3,45.6z"/>
</svg>
