<?xml version="1.0" encoding="utf-8"?>
<!-- Generator: Adobe Illustrator 27.7.0, SVG Export Plug-In . SVG Version: 6.00 Build 0)  -->
<svg version="1.1" id="Ebene_1" focusable="false" xmlns="http://www.w3.org/2000/svg" xmlns:xlink="http://www.w3.org/1999/xlink"
	 x="0px" y="0px" viewBox="0 0 30 44" style="enable-background:new 0 0 30 44;" xml:space="preserve">
<g>
	<path fill="currentColor" d="M28.1,13.4c-1,0-1.8,0.8-1.8,1.8v4.9c0,6.2-5.1,11.3-11.3,11.3c-6.2,0-11.3-5.1-11.3-11.3v-4.9c0-1-0.8-1.8-1.8-1.8
		S0,14.3,0,15.3v4.9c0,7.4,5.4,13.7,12.7,14.8v6.1c0,1,0.8,1.8,1.8,1.8s1.8-0.8,1.8-1.8v-6c7.6-0.7,13.5-7.2,13.5-14.8v-4.9
		C29.9,14.3,29.1,13.4,28.1,13.4z"/>
	<path fill="currentColor" d="M15,28.9c4.9,0,8.9-4,8.9-8.9v-8.7c0-4.9-4-8.9-8.9-8.9s-8.9,4-8.9,8.9V20C6.1,24.9,10.1,28.9,15,28.9z M15,5.6
		c3.1,0,5.7,2.6,5.7,5.7v2.8H9.3v-2.8C9.3,8.1,11.9,5.6,15,5.6z M15,25.7c-3.1,0-5.7-2.6-5.7-5.7v-2.7h11.4V20
		C20.7,23.1,18.2,25.7,15,25.7z"/>
</g>
</svg>
