<?xml version="1.0" encoding="utf-8"?>
<!-- Generator: Adobe Illustrator 27.7.0, SVG Export Plug-In . SVG Version: 6.00 Build 0)  -->
<svg version="1.1" id="Ebene_1" focusable="false" xmlns="http://www.w3.org/2000/svg" xmlns:xlink="http://www.w3.org/1999/xlink"
	 x="0px" y="0px" viewBox="0 0 31.1 44" style="enable-background:new 0 0 31.1 44;" xml:space="preserve">
<g>
	<path fill="currentColor" d="M30.7,15.4c0.1-0.6-0.1-1.2-0.5-1.6c-0.4-0.4-0.9-0.6-1.4-0.6c-1.1,0-2,0.9-2,2v4.9c0,6.1-5,11-11.1,11c-6.1,0-11-5-11-11
		v-4.9c0-1.1-0.9-2-2-2c-1.1,0-2.2,1-2.2,2.1v4.9c0,7.4,5.4,13.8,12.7,15v5.9c0,1.1,0.9,2,2,2s2.1-0.9,2.1-2v-5.8
		c7.6-0.8,13.5-7.4,13.5-15L30.7,15.4z"/>
	<path fill="currentColor" d="M15.7,29.1c5,0,9.1-4.1,9.1-9.1v-8.7c0-5-4.1-9.1-9.1-9.1s-9.1,4.1-9.1,9.1V20C6.5,25,10.6,29.1,15.7,29.1z M21.1,17.5V20
		c0,3-2.4,5.5-5.5,5.5c-3,0-5.4-2.5-5.4-5.5v-2.5H21.1z M10.2,11.3c0-3,2.4-5.5,5.4-5.5c3,0,5.5,2.5,5.5,5.5v2.5H10.2V11.3z"/>
</g>
</svg>
