<?xml version="1.0" encoding="utf-8"?>
<!-- Generator: Adobe Illustrator 27.7.0, SVG Export Plug-In . SVG Version: 6.00 Build 0)  -->
<svg version="1.1" id="Ebene_1" focusable="false" xmlns="http://www.w3.org/2000/svg" xmlns:xlink="http://www.w3.org/1999/xlink"
	 x="0px" y="0px" viewBox="0 0 57.1 44" style="enable-background:new 0 0 57.1 44;" xml:space="preserve">
<path fill="currentColor" d="M56.9,3.7c0-1.8-1.5-3.3-3.3-3.3c-1.8,0-3.3,1.5-3.3,3.3c0,1,0.5,1.9,1.2,2.6c-1.8,4.3-4.7,6.6-6.9,7.8
	c-0.3,0.2-0.7,0.3-1,0.5c-3-3.7-7.7-6-12.9-5.3c-7.2,0.9-12.6,6.9-12.6,14c-4.9,1.3-8.7,0.1-11.1-1.1c0-0.1,0-0.2,0-0.3
	c0-1.8-1.5-3.3-3.3-3.3c-1.8,0-3.3,1.5-3.3,3.3c0,1.8,1.5,3.3,3.3,3.3c0.6,0,1.2-0.2,1.7-0.5c1.7,0.9,4.1,1.8,7,2.1
	c0.7,0.1,1.4,0.1,2.1,0.1c1.2,0,2.5-0.2,3.9-0.5c1.3,7.3,8.1,12.1,15.7,11.2c7.9-0.9,13.4-8,12.5-15.9c-0.2-1.8-0.6-3.1-1.3-4.5
	c2.8-1.3,7-4.2,9.2-10.1C55.8,6.5,56.9,5.2,56.9,3.7z M32.9,29.9c-3.6,0.4-6.8-2.1-7.2-5.7c-0.4-3.6,2.1-6.8,5.7-7.2
	c3.6-0.4,6.8,2.1,7.2,5.7C39,26.2,36.4,29.4,32.9,29.9z"/>
</svg>
