<?xml version="1.0" encoding="utf-8"?>
<!-- Generator: Adobe Illustrator 27.7.0, SVG Export Plug-In . SVG Version: 6.00 Build 0)  -->
<svg version="1.1" id="Ebene_1" focusable="false" xmlns="http://www.w3.org/2000/svg" xmlns:xlink="http://www.w3.org/1999/xlink"
	 x="0px" y="0px" viewBox="0 0 55.2 44" style="enable-background:new 0 0 55.2 44;" xml:space="preserve">
<path fill="currentColor" d="M54.4,2.6c-0.7-1.1-2.1-1.5-3.3-0.9c-1.1,0.7-1.5,2.1-0.9,3.3c0.2,0.3,0.4,0.6,0.7,0.8c-0.9,4.3-4.3,8-8.4,9.5
	c-2.9-4.1-7.9-6.6-13.3-5.9c-7.6,0.9-13.1,7.7-12.5,15.2c-3.9,1.3-8.5,0.6-11.9-1.8c0.1-0.3,0.1-0.7,0-1.1c-0.3-1.3-1.5-2.1-2.8-1.9
	c-1.3,0.3-2.1,1.5-1.9,2.8C0.5,24,1.7,24.8,3,24.5c0.4-0.1,0.8-0.3,1.1-0.5c2.9,2.1,6.6,3,10.2,2.6c0.9-0.1,1.8-0.3,2.6-0.6
	c1.3,7.3,8.2,12.4,15.7,11.5c7.8-0.9,13.3-8,12.4-15.8c-0.2-1.9-0.8-3.7-1.7-5.2c4.5-1.7,8-5.6,9-10.3c0.4,0,0.8-0.1,1.2-0.3
	C54.6,5.2,55,3.8,54.4,2.6z M31.7,29.9c-3.6,0.4-6.8-2.1-7.2-5.7c-0.4-3.6,2.1-6.8,5.7-7.2c3.6-0.4,6.8,2.1,7.2,5.7
	C37.8,26.2,35.2,29.4,31.7,29.9z"/>
</svg>
