<?xml version="1.0" encoding="utf-8"?>
<!-- Generator: Adobe Illustrator 27.7.0, SVG Export Plug-In . SVG Version: 6.00 Build 0)  -->
<svg version="1.1" id="Ebene_1" focusable="false" xmlns="http://www.w3.org/2000/svg" xmlns:xlink="http://www.w3.org/1999/xlink"
	 x="0px" y="0px" viewBox="0 0 22 41" style="enable-background:new 0 0 22 41;" xml:space="preserve">
<g>
	<path fill="currentColor" d="M9,6.3C8.7,6,8.2,5.7,7.7,5.7c-0.5,0-1.1,0.2-1.5,0.6C5.9,6.6,5.6,7.1,5.6,7.6c0,0.5,0.2,1.1,0.6,1.5
		c3,3.1,4.6,7.1,4.6,11.4c0,4.3-1.6,8.3-4.6,11.4c-0.8,0.8-0.8,2,0,2.8c0.4,0.4,0.9,0.6,1.4,0.6c0,0,0,0,0.1,0c0.5,0,1-0.2,1.3-0.6
		c3.7-3.7,5.9-8.9,5.9-14.2C14.8,15.3,12.8,10.2,9,6.3z"/>
	<path fill="currentColor" d="M4.2,11L4.2,11c-0.8-0.8-2.1-0.9-2.9-0.1c-0.8,0.8-0.8,1.9-0.1,2.7c1.7,1.8,2.6,4.2,2.6,6.7c0,2.5-0.9,4.9-2.6,6.7
		c-0.7,0.8-0.6,2.1,0.1,2.7c0.4,0.4,0.9,0.6,1.4,0.6c0,0,0,0,0.1,0c0.5,0,1-0.3,1.4-0.7C6.6,27.3,8,23.9,8,20.4
		C8,16.9,6.6,13.6,4.2,11z"/>
	<path fill="currentColor" d="M13.9,1.5c-0.3-0.4-0.8-0.6-1.3-0.6c-0.6,0-1.1,0.2-1.5,0.6c-0.7,0.7-0.8,1.9,0,2.8c4.3,4.3,6.7,10.1,6.7,16.2
		c0,6-2.4,11.8-6.7,16.2c-0.8,0.8-0.8,2,0,2.8c0.4,0.4,0.9,0.6,1.4,0.6c0,0,0,0,0.1,0c0.5,0,1-0.2,1.3-0.6c5.1-5.2,7.9-11.9,7.9-19
		C21.8,13.4,19,6.7,13.9,1.5z"/>
</g>
</svg>
