<?xml version="1.0" encoding="utf-8"?>
<!-- Generator: Adobe Illustrator 27.7.0, SVG Export Plug-In . SVG Version: 6.00 Build 0)  -->
<svg version="1.1" id="Ebene_1" focusable="false" xmlns="http://www.w3.org/2000/svg" xmlns:xlink="http://www.w3.org/1999/xlink"
	 x="0px" y="0px" viewBox="0 0 22 41" style="enable-background:new 0 0 22 41;" xml:space="preserve">
<style type="text/css">
	.st0{fill-rule:evenodd;clip-rule:evenodd;}
</style>
<path fill="currentColor" id="radio" class="st0" d="M11.3,39.3L11.3,39.3c-0.7-0.7-0.7-1.7,0-2.4c4.2-4.3,6.8-10,6.8-16.4c0-6.4-2.6-12.2-6.8-16.4
	c-0.7-0.7-0.6-1.8,0-2.4l0,0C12,1,13.1,1,13.7,1.7c4.8,4.9,7.8,11.5,7.8,18.8c0,7.3-3,13.9-7.8,18.8C13.1,40,12,40,11.3,39.3z
	 M6.4,34.5L6.4,34.5c-0.7-0.7-0.7-1.7,0-2.4c2.9-3,4.7-7.1,4.7-11.6c0-4.5-1.8-8.6-4.7-11.6c-0.7-0.7-0.7-1.8,0-2.4l0,0
	c0.7-0.7,1.8-0.7,2.4,0c3.6,3.7,5.8,8.6,5.8,14c0,5.4-2.2,10.4-5.8,14C8.2,35.2,7.1,35.2,6.4,34.5z M1.5,29.7L1.5,29.7
	c-0.7-0.6-0.7-1.7-0.1-2.4c1.7-1.8,2.7-4.2,2.7-6.9c0-2.7-1-5.1-2.7-6.9c-0.6-0.7-0.6-1.7,0.1-2.4l0,0c0.7-0.7,1.8-0.6,2.5,0.1
	c2.3,2.4,3.7,5.6,3.7,9.2c0,3.5-1.4,6.8-3.7,9.2C3.3,30.4,2.2,30.4,1.5,29.7z"/>
</svg>
